<svg fill="#fff" height="512pt" viewBox="-43 0 512 512.08148" width="512pt" xmlns="http://www.w3.org/2000/svg"><path d="m320.324219 128.328125c-5.863281-6.492187-10.640625-13.882813-14.148438-21.894531-3.4375-8.234375-5.960937-16.820313-7.527343-25.601563-.453126-2.335937-.8125-4.675781-1.179688-7.015625-.773438-6.488281-2.253906-12.875-4.417969-19.042968-12.480469-32.535157-43.488281-54.214844-78.332031-54.7617192-34.839844-.5507808-66.515625 20.1406252-80.011719 52.2695312-2.722656 7.136719-4.523437 14.59375-5.351562 22.183594-.425781 2.808594-.855469 5.617187-1.398438 8.40625-3.003906 16.757812-10.378906 32.425781-21.386719 45.414062-59.421874 2.453125-106.375 51.257813-106.5312495 110.730469v102.398437c.0195313 27.003907 11.6953125 52.683594 32.0351565 70.445313l-14.070313 28.15625c-1.363281 2.730469-1.167968 5.980469.515625 8.523437 1.679688 2.542969 4.59375 4 7.636719 3.8125 3.042969-.183593 5.757812-1.976562 7.121094-4.707031l12.800781-25.597656c4.160156 2.496094 8.507813 4.660156 13.003906 6.476563l-7.578125 30.300781c-1.144531 4.570312 1.632813 9.207031 6.207032 10.351562.671874.164063 1.367187.246094 2.0625.238281 3.910156-.003906 7.320312-2.664062 8.269531-6.457031l7.382812-29.519531c6.082031 1.222656 12.273438 1.839844 18.480469 1.84375h4.082031c2.222657 4.710938 4.789063 9.25 7.679688 13.585938 1.339843 1.914062 3.175781 3.429687 5.316406 4.378906v33.234375c0 14.140625 11.460937 25.601562 25.597656 25.601562h34.132813c14.140625 0 25.601562-11.460937 25.601562-25.601562v-28.296875c3.8125 4.167968 8.285156 7.671875 13.242188 10.378906 2.402344 1.199219 5.226562 1.199219 7.628906 0 4.960938-2.707031 9.4375-6.210938 13.253906-10.378906v28.296875c0 14.140625 11.460938 25.601562 25.597656 25.601562h34.136719c14.136719 0 25.597657-11.460937 25.597657-25.601562v-33.277344c2.140624-.949219 3.976562-2.460937 5.316406-4.378906 2.890625-4.335938 5.457031-8.875 7.679687-13.585938h3.652344c6.203125-.003906 12.394531-.621093 18.476563-1.84375l7.378906 29.519531c.953125 3.792969 4.359375 6.453126 8.269531 6.457032.703125.003906 1.402344-.082032 2.082031-.253906 4.570313-1.144532 7.347656-5.78125 6.203125-10.351563l-7.566406-30.300781c4.492187-1.820313 8.835937-3.984375 12.996094-6.476563l12.796875 25.597657c1.351562 2.753906 4.070312 4.570312 7.128906 4.761718s5.984375-1.269531 7.667969-3.832031c1.683593-2.558594 1.863281-5.828125.472656-8.558594l-14.074219-28.160156c20.324219-17.746094 32-43.402344 32.027344-70.382813v-102.398437c-.164062-59.242187-46.78125-107.9375-105.957031-110.6875zm-303.21875 213.085937v-102.398437c.105469-40.5625 26.179687-76.492187 64.710937-89.164063-.574218 1.355469-.910156 2.796876-1 4.265626-.152344 4.585937 2.160156 8.902343 6.058594 11.316406 3.589844 2.203125 7.433594 3.972656 11.445312 5.261718-21.078124 18.636719-36.191406 43.074219-43.453124 70.257813-1.5625 5.207031.332031 10.835937 4.730468 14.03125 4.398438 3.199219 10.339844 3.269531 14.8125.175781.597656-.402344 1.183594-.792968 1.765625-1.167968-14.097656 28.203124-35.816406 79.742187-34.320312 127.1875.125 5.398437 3.625 10.136718 8.746093 11.84375 5.121094 1.707031 10.765626.019531 14.105469-4.222657 4.363281-5.578125 9.191407-10.777343 14.429688-15.539062 2.738281 15.210937 6.648437 30.1875 11.691406 44.800781-41.148437-1.652344-73.671875-35.464844-73.722656-76.648438zm153.601562 153.601563h-8.53125v-8.535156c0-4.710938-3.820312-8.53125-8.535156-8.53125-4.710937 0-8.535156 3.820312-8.535156 8.53125v8.535156h-8.53125c-4.714844 0-8.535157-3.820313-8.535157-8.535156v-40.105469c.386719-.871094.675782-1.78125.855469-2.714844.496094-3.140625 1.179688-6.25 2.046875-9.308594 5.503906 6.351563 9.933594 13.558594 13.125 21.332032 1.503906 4.410156 5.296875 7.648437 9.886719 8.445312 4.59375.796875 9.253906-.976562 12.15625-4.621094 4.953125-6.285156 9.347656-12.992187 13.132813-20.046874v47.019531c0 4.714843-3.820313 8.535156-8.535157 8.535156zm42.667969-44.246094c-9.082031-8.269531-16.660156-18.046875-22.410156-28.902343-2.265625-3.9375-6.464844-6.359376-11.007813-6.347657h-.757812c-4.839844.28125-9.105469 3.269531-11.019531 7.722657-3.003907 6.925781-6.699219 13.53125-11.023438 19.71875-5.011719-9.277344-11.15625-17.898438-18.296875-25.660157-2.96875-3.320312-7.449219-4.859375-11.832031-4.0625-4.382813.800781-8.035156 3.816407-9.644532 7.972657-1.15625 2.929687-2.15625 5.917968-2.996093 8.949218-1.089844-2.132812-2.125-4.359375-3.121094-6.628906l-.113281-.246094c-7.722656-19.269531-13.222656-39.355468-16.390625-59.871094-.699219-4.351562-3.585938-8.035156-7.644531-9.757812-4.054688-1.71875-8.710938-1.230469-12.324219 1.292969-5.730469 4.171875-11.007813 8.933593-15.746094 14.207031 2.5625-49.195312 29.398437-102.398438 38.09375-118.433594 2.488281-4.578125 1.957031-10.207031-1.347656-14.234375-3.304688-4.027343-8.71875-5.648437-13.695313-4.105469-2.511718.789063-4.964844 1.761719-7.339844 2.902344 7.628907-22.511718 21.878907-42.195312 40.882813-56.472656 4.253906-3.019531 6.203125-8.347656 4.898437-13.398438-1.285156-5.140624-5.609374-8.960937-10.871093-9.597656-2.347657-.304687-4.660157-.851562-6.894531-1.632812 1.894531-1.246094 3.746093-2.558594 5.539062-3.992188 19.339844-16.34375 32.246094-39.023437 36.417969-64 .597656-3.039062 1.066406-6.109375 1.527343-9.171875.648438-6.167969 2.050782-12.234375 4.175782-18.058593 10.789062-25.710938 36.125-42.273438 64.003906-41.84375 27.878906.433593 52.695312 17.773437 62.679688 43.808593 1.707031 5.042969 2.875 10.25 3.492187 15.539063.390625 2.558594.792969 5.117187 1.277344 7.628906 1.800781 9.992188 4.699219 19.761719 8.636719 29.121094 4.324218 9.859375 10.234374 18.941406 17.503906 26.882812.753906 1.589844 1.980468 2.90625 3.515625 3.769532 3.601562 3.625 7.527343 6.910156 11.730469 9.8125l.734374.496093c-2.238281.78125-4.550781 1.328125-6.902343 1.628907-5.257813.644531-9.578125 4.460937-10.863281 9.601562-1.300782 5.050781.644531 10.378906 4.898437 13.398438 19.007813 14.273437 33.257813 33.957031 40.882813 56.472656-2.367188-1.144532-4.820313-2.109375-7.328126-2.894532-4.976562-1.546874-10.390624.074219-13.699218 4.101563-3.304688 4.023437-3.839844 9.652344-1.355469 14.230469 8.695313 16.050781 35.515625 69.238281 38.09375 118.433594-4.734375-5.273438-10.007813-10.03125-15.734375-14.199219-3.613281-2.527344-8.273438-3.019531-12.332031-1.296875-4.0625 1.71875-6.949219 5.40625-7.644531 9.761718-3.101563 19.847657-8.34375 39.304688-15.636719 58.027344-.894531 1.125-1.480469 2.460938-1.703125 3.882813-.753906 1.636719-1.527344 3.25-2.332032 4.8125-.839843-3.039063-1.839843-6.035157-2.996093-8.96875-1.605469-4.15625-5.261719-7.171875-9.644531-7.972657-4.382813-.796874-8.863282.742188-11.832032 4.0625-7.136718 7.777344-13.28125 16.410157-18.289062 25.703126-4.3125-6.183594-7.992188-12.785157-10.988282-19.703126-1.917968-4.421874-6.15625-7.394531-10.964843-7.6875-4.8125-.292968-9.378907 2.140626-11.820313 6.296876-5.757812 10.855468-13.351562 20.632812-22.441406 28.902343zm76.800781 44.246094h-8.535156v-8.535156c0-4.710938-3.820313-8.53125-8.535156-8.53125-4.710938 0-8.53125 3.820312-8.53125 8.53125v8.535156h-8.535157c-4.710937 0-8.53125-3.820313-8.53125-8.535156v-47.019531c3.777344 7.054687 8.167969 13.757812 13.125 20.039062 2.894532 3.652344 7.554688 5.429688 12.148438 4.636719s8.386719-4.03125 9.890625-8.445313c3.1875-7.773437 7.621094-14.980468 13.125-21.332031.867187 3.0625 1.550781 6.175781 2.046875 9.320313.183594.929687.46875 1.835937.855469 2.703124v40.097657c0 4.710937-3.816407 8.53125-8.523438 8.535156zm119.039063-153.601563c-.050782 41-32.296875 74.726563-73.25 76.621094 5.039062-14.601562 8.945312-29.570312 11.679687-44.773437 5.242188 4.761719 10.066407 9.960937 14.429688 15.539062 3.347656 4.214844 8.972656 5.882813 14.078125 4.179688 5.105468-1.707031 8.597656-6.421875 8.742187-11.800781 1.457031-47.4375-20.257812-98.984376-34.355469-127.144532.578126.375 1.167969.765625 1.765626 1.167969 4.472656 3.089844 10.40625 3.019531 14.804687-.175781 4.394531-3.195313 6.296875-8.816406 4.738281-14.023438-7.257812-27.1875-22.375-51.625-43.453125-70.265625 4.011719-1.292969 7.851563-3.0625 11.445313-5.265625 3.898437-2.410156 6.210937-6.726562 6.058594-11.3125-.078126-1.398437-.386719-2.773437-.914063-4.070312 38.261719 12.804687 64.101563 48.578125 64.230469 88.925781zm0 0"/><path d="m179.242188 76.882812v17.066407c0 4.710937 3.820312 8.53125 8.53125 8.53125 4.714843 0 8.535156-3.820313 8.535156-8.53125v-17.066407c4.710937 0 8.53125-3.820312 8.53125-8.535156 0-4.710937-3.820313-8.53125-8.53125-8.53125h-17.066406c-4.714844 0-8.535157 3.820313-8.535157 8.53125 0 4.714844 3.820313 8.535156 8.535157 8.535156zm0 0"/><path d="m230.441406 76.882812v17.066407c0 4.710937 3.820313 8.53125 8.53125 8.53125 4.714844 0 8.535156-3.820313 8.535156-8.53125v-17.066407c4.710938 0 8.53125-3.820312 8.53125-8.535156 0-4.710937-3.820312-8.53125-8.53125-8.53125h-17.066406c-4.714844 0-8.535156 3.820313-8.535156 8.53125 0 4.714844 3.820312 8.535156 8.535156 8.535156zm0 0"/><path d="m179.242188 153.679688h68.265624c4.710938 0 8.53125-3.820313 8.53125-8.53125 0-4.714844-3.820312-8.535157-8.53125-8.535157h-8.535156v-8.53125c0-4.714843-3.820312-8.535156-8.53125-8.535156-4.714844 0-8.535156 3.820313-8.535156 8.535156v8.53125h-17.066406v-8.53125c0-4.714843-3.820313-8.535156-8.53125-8.535156-4.714844 0-8.535156 3.820313-8.535156 8.535156v8.53125h-8.53125c-4.714844 0-8.535157 3.820313-8.535157 8.535157 0 4.710937 3.820313 8.53125 8.535157 8.53125zm0 0"/><path d="m265.613281 326.773438c4.164063 1.511718 8.242188 3.253906 12.214844 5.210937 2.644531 1.324219 5.785156 1.179687 8.300781-.375s4.046875-4.304687 4.046875-7.261719c-.496093-18.929687-4.199219-37.636718-10.949219-55.328125 2.636719 1.089844 5.121094 2.234375 7.132813 3.234375 2.871094 1.433594 6.304687 1.132813 8.886719-.777344 2.582031-1.90625 3.871094-5.105468 3.34375-8.269531-9.039063-54.222656-36.644532-73.183593-37.8125-73.957031-3.910156-2.617188-9.199219-1.578125-11.824219 2.324219-2.628906 3.902343-1.601563 9.191406 2.292969 11.832031.195312.136719 17.621094 12.585938 27.09375 47-4.417969-1.644531-9.058594-2.609375-13.765625-2.859375-2.964844-.015625-5.726563 1.507813-7.292969 4.027344s-1.710938 5.667969-.386719 8.320312c7.636719 16.175781 12.8125 33.402344 15.359375 51.109375-8.378906-3.074218-18.160156-6.207031-22.785156-.609375-1.621094 1.96875-2.28125 4.5625-1.789062 7.066407.253906 1.324218 5.382812 29.234374-13.050782 45.160156-4.929687-11.152344-11.953125-21.207032-21.253906-21.207032s-16.324219 10.054688-21.25 21.207032c-18.429688-15.925782-13.300781-43.828125-13.054688-45.132813.5-2.507812-.148437-5.105469-1.765624-7.082031-4.609376-5.617188-14.40625-2.484375-22.792969.597656 2.554687-17.703125 7.726562-34.925781 15.34375-51.109375 1.324219-2.652343 1.175781-5.800781-.386719-8.320312-1.566406-2.519531-4.328125-4.042969-7.292969-4.027344-4.710937.253906-9.355469 1.214844-13.773437 2.859375 9.480468-34.40625 26.894531-46.855469 27.042968-46.933594 2.535157-1.691406 3.976563-4.609375 3.777344-7.652344-.195312-3.039062-2-5.746093-4.734375-7.097656-2.734375-1.351562-5.980469-1.140625-8.515625.550782-1.171875.777343-28.777344 19.738281-37.8125 73.957031-.53125 3.167969.761719 6.363281 3.339844 8.273437 2.582031 1.910156 6.015625 2.207032 8.886719.773438 1.988281-.996094 4.5-2.140625 7.136719-3.242188-6.746094 17.6875-10.445313 36.390625-10.949219 55.3125-.015625 2.964844 1.507812 5.726563 4.027343 7.292969 2.515626 1.566406 5.667969 1.714844 8.320313.386719 3.972656-1.960938 8.046875-3.703125 12.210937-5.222656-1.382812 23.300781 10.839844 45.296874 31.359376 56.421874 2.21875 1.121094 4.8125 1.21875 7.105468.269532 2.296875-.949219 4.0625-2.851563 4.84375-5.207032 2.09375-6.582031 5.101563-12.839843 8.933594-18.585937 3.847656 5.730469 6.871094 11.976563 8.976562 18.550781.78125 2.34375 2.542969 4.234375 4.828126 5.179688 2.28125.945312 4.863281.855468 7.074218-.25 20.519532-11.121094 32.746094-33.113282 31.359375-56.410156zm0 0"/></svg>